<svg xmlns="http://www.w3.org/2000/svg" viewBox="0 0 64 64" role="img" aria-label="Clockwork Atelier logo">
  <defs>
    <linearGradient id="brass" x1="0" y1="0" x2="1" y2="1">
      <stop offset="0" stop-color="#d8b45a" />
      <stop offset="1" stop-color="#9a741e" />
    </linearGradient>
  </defs>
  <g fill="url(#brass)" stroke="#6a3a18" stroke-width="2">
    <rect x="29" y="4" width="6" height="10" rx="2" transform="rotate(0 32 32)" />
    <rect x="29" y="4" width="6" height="10" rx="2" transform="rotate(45 32 32)" />
    <rect x="29" y="4" width="6" height="10" rx="2" transform="rotate(90 32 32)" />
    <rect x="29" y="4" width="6" height="10" rx="2" transform="rotate(135 32 32)" />
    <rect x="29" y="4" width="6" height="10" rx="2" transform="rotate(180 32 32)" />
    <rect x="29" y="4" width="6" height="10" rx="2" transform="rotate(225 32 32)" />
    <rect x="29" y="4" width="6" height="10" rx="2" transform="rotate(270 32 32)" />
    <rect x="29" y="4" width="6" height="10" rx="2" transform="rotate(315 32 32)" />
    <circle cx="32" cy="32" r="20" />
  </g>
  <circle cx="32" cy="32" r="14" fill="#1b110b" stroke="#6a3a18" stroke-width="2" />
  <circle cx="32" cy="32" r="10" fill="none" stroke="#d8b45a" stroke-width="1.5" />
  <g stroke="#d8b45a" stroke-linecap="round" stroke-width="2">
    <line x1="32" y1="32" x2="32" y2="20" />
    <line x1="32" y1="32" x2="42" y2="32" />
  </g>
  <circle cx="32" cy="32" r="2.5" fill="#d8b45a" stroke="#6a3a18" stroke-width="1" />
</svg>
